<?xml version="1.0" standalone="no"?>
<!DOCTYPE svg PUBLIC "-//W3C//DTD SVG 20010904//EN"
 "http://www.w3.org/TR/2001/REC-SVG-20010904/DTD/svg10.dtd">
<svg version="1.0" xmlns="http://www.w3.org/2000/svg"
 width="1024.000000pt" height="1024.000000pt" viewBox="0 0 1024.000000 1024.000000"
 preserveAspectRatio="xMidYMid meet">
<metadata>
Created by potrace 1.11, written by Peter Selinger 2001-2013
</metadata>
<g transform="translate(0.000000,1024.000000) scale(0.100000,-0.100000)"
fill="#000000" stroke="none">
<path d="M1387 7365 c-3 -9 -1 -4446 2 -4487 1 -17 27 -18 399 -18 l398 0 -1
698 c0 383 1 703 3 710 3 8 20 -4 44 -30 22 -24 101 -108 176 -188 75 -79 148
-156 162 -171 14 -15 80 -85 146 -155 67 -71 136 -145 154 -164 18 -19 67 -71
109 -115 72 -77 296 -315 376 -400 20 -22 68 -73 106 -112 l69 -73 873 0 873
0 35 43 c19 23 111 139 204 257 94 118 175 222 182 230 7 8 101 127 209 263
108 137 200 245 204 240 3 -4 24 -30 46 -58 21 -27 44 -55 49 -61 6 -7 172
-215 369 -463 l359 -451 474 0 474 0 -18 23 c-38 48 -379 465 -430 527 -30 36
-60 72 -66 80 -37 47 -142 176 -147 180 -3 3 -32 39 -65 80 -33 41 -62 77 -65
80 -3 3 -25 30 -50 60 -25 30 -52 64 -62 75 -9 11 -62 76 -118 145 -56 69
-109 134 -118 145 -10 11 -35 42 -57 70 -22 27 -52 63 -67 79 -58 64 -57 65
18 157 38 46 73 89 79 95 5 6 24 28 40 50 17 21 86 106 155 189 69 84 141 171
160 195 19 24 109 134 200 245 91 111 179 219 195 240 17 21 35 43 40 49 21
22 281 341 289 354 6 9 -90 12 -468 12 l-475 0 -118 -151 c-65 -82 -165 -210
-223 -283 -58 -73 -172 -219 -255 -325 l-150 -191 -32 37 c-38 44 -574 726
-681 866 l-37 48 -955 -4 -954 -5 -66 -69 c-36 -39 -87 -94 -114 -124 -27 -30
-97 -106 -155 -169 -59 -63 -129 -139 -157 -169 -27 -30 -62 -68 -79 -86 -27
-28 -193 -207 -254 -274 -29 -32 -196 -213 -277 -300 -32 -35 -79 -85 -104
-112 -25 -27 -47 -49 -50 -49 -3 0 -5 616 -4 1370 l0 1370 -35 0 c-424 6 -761
3 -764 -5z m3043 -1412 c8 -10 33 -40 55 -68 22 -27 53 -66 70 -86 50 -59 66
-79 175 -214 58 -71 117 -143 131 -160 22 -25 94 -113 332 -405 57 -70 103
-126 107 -130 3 -3 32 -39 65 -80 33 -41 62 -77 65 -80 3 -3 24 -27 45 -55 22
-27 48 -59 58 -69 9 -11 37 -46 62 -77 l45 -57 -76 -94 c-41 -51 -83 -102 -92
-113 -9 -11 -38 -47 -65 -80 -26 -33 -56 -69 -65 -80 -22 -24 -215 -262 -255
-314 -15 -20 -45 -56 -65 -80 -20 -25 -81 -99 -135 -165 -54 -67 -106 -130
-115 -141 -9 -11 -35 -43 -57 -70 -22 -28 -47 -59 -56 -70 -10 -11 -67 -81
-128 -157 l-112 -136 -52 56 c-29 31 -61 66 -72 77 -31 33 -253 272 -315 339
-60 66 -67 73 -155 167 -215 231 -317 341 -371 399 -184 198 -250 269 -368
395 -36 39 -65 75 -65 80 0 6 27 39 60 75 99 105 310 329 359 381 50 53 245
260 310 329 23 25 97 104 164 175 68 72 135 144 150 160 16 17 88 93 161 170
73 77 143 152 156 167 28 33 30 33 49 11z"/>
<path d="M8157 3738 c-9 -5 -12 -117 -12 -440 l0 -433 448 -3 c246 -1 447 1
448 5 4 51 0 865 -5 870 -8 9 -864 10 -879 1z"/>
</g>
</svg>
